<svg
            width="175"
            height="40"
            viewBox="0 0 175 40"
            fill="none"
            xmlns="http://www.w3.org/2000/svg"
          >
            <path
              d="M0 16C0 7.16344 7.16344 0 16 0H159C167.837 0 175 7.16344 175 16V24C175 32.8366 167.837 40 159 40H16C7.16345 40 0 32.8366 0 24V16Z"
              fill="#FF9F00"
            />
            <path
              d="M33.885 8.668C35.343 8.668 37.143 9.622 39.285 11.53C42.201 14.914 43.659 18.424 43.659 22.06C43.659 25.5285 42.0295 27.9465 38.7706 29.314C38.4871 29.433 38.1865 29.5069 37.8821 29.5504V29.5504C37.6836 29.5788 37.4828 29.597 37.2829 29.5812C35.5236 29.442 34.1331 28.068 33.1114 25.4591C33.1058 25.4447 33.0918 25.435 33.0764 25.435V25.435C33.0596 25.435 33.0448 25.4465 33.0402 25.4627C32.411 27.6942 31.5676 28.81 30.51 28.81H30.348C28.944 28.81 27.981 26.164 27.459 20.872V19.306C27.4924 17.5692 27.9519 16.5219 28.8374 16.164C28.9766 16.1078 29.0703 16.0695 29.2108 16.1223V16.1223C29.7818 16.3368 29.588 17.2213 29.3602 17.7872C29.1547 18.2979 29.052 18.8581 29.052 19.468V19.711C29.052 20.0285 29.0564 20.3382 29.0653 20.6401C29.171 24.2531 31.7758 24.3096 32.103 20.71V20.71C32.103 17.9701 32.2855 16.4642 32.6506 16.192C32.724 16.1373 32.8232 16.138 32.913 16.12V16.12C33.0028 16.102 33.095 16.0888 33.1852 16.1043C33.6877 16.1906 33.939 16.7719 33.939 17.848L33.777 20.818C33.777 22.2204 34.0829 23.6626 34.6948 25.1448C35.2349 26.4532 36.0875 27.973 37.503 27.973V27.973C38.529 27.973 39.627 27.334 40.797 26.056C41.625 24.958 42.039 23.572 42.039 21.898C42.039 18.19 40.41 14.788 37.152 11.692C36.36 11.0517 35.1737 10.5218 33.5929 10.1023C33.3864 10.0475 33.2152 9.902 33.1322 9.70508V9.70508C33.0775 9.57495 33.0607 9.42945 33.1068 9.296C33.2514 8.87733 33.5108 8.668 33.885 8.668Z"
              fill="white"
            />
            <path
              d="M46.8644 12.961C47.4944 12.961 47.8094 14.059 47.8094 16.255L47.9697 20.4218C47.9706 20.447 47.9914 20.467 48.0166 20.467V20.467C48.0224 20.467 48.0282 20.4659 48.0336 20.4638L49.049 20.0704C51.077 19.2845 52.4526 17.4319 52.8421 15.2922C53.0329 14.2439 53.2156 13.6062 53.3903 13.3792C53.4624 13.2855 53.5921 13.276 53.7089 13.258V13.258C53.8257 13.24 53.9465 13.2225 54.0591 13.2583C54.0686 13.2613 54.078 13.2646 54.0874 13.2681C54.6685 13.485 54.6517 14.2913 54.5372 14.9009C54.03 17.6026 53.7764 19.971 53.7764 22.006V23.167C53.7764 24.4145 54.0011 25.6161 54.4506 26.7716C54.7354 27.5039 54.8861 28.648 54.1004 28.648V28.648C53.2364 28.648 52.5974 26.902 52.1834 23.41V20.7943C52.1834 20.7179 52.1215 20.656 52.0451 20.656V20.656C52.0294 20.656 52.0135 20.6588 51.9987 20.664C49.3139 21.6134 47.9714 22.2228 47.9714 22.492C47.9714 26.776 47.5754 28.918 46.7834 28.918H46.6754C46.3832 28.918 46.1717 28.7298 46.0408 28.3534C45.9555 28.1079 45.9648 27.8418 45.9989 27.5842C46.1492 26.4491 46.2514 25.471 46.3056 24.6498C46.3427 24.0863 45.752 23.7233 45.2515 23.9849L45.2325 23.9949C45.1866 24.0189 45.1378 24.0367 45.0873 24.0479V24.0479C44.9783 24.0721 44.8632 24.0678 44.7628 24.019C44.4179 23.8517 44.2454 23.5947 44.2454 23.248C44.2454 22.8564 44.9319 22.2448 46.3048 21.4132C46.3334 21.3958 46.3514 21.3645 46.3514 21.331V21.331C46.2974 18.235 46.1804 15.67 46.0004 13.636C46.0004 13.24 46.2884 13.015 46.8644 12.961Z"
              fill="white"
            />
            <path
              d="M60.064 10.396V10.396C60.8694 10.396 60.7371 11.6502 60.5074 12.4222C60.0498 13.9598 59.821 15.4175 59.821 16.795V17.713C59.821 19.729 60.334 20.737 61.36 20.737C62.674 20.737 63.574 18.433 64.06 13.825C64.06 11.683 64.249 10.612 64.627 10.612L65.059 10.558C65.437 10.558 65.662 10.864 65.734 11.476V20.575C65.734 26.245 64.78 29.566 62.872 30.538C62.8264 30.5631 62.7779 30.5877 62.7266 30.6119C61.7989 31.0491 60.7127 31.1127 59.7389 30.7912C58.5973 30.4141 57.3601 29.6269 56.0273 28.4293C55.9124 28.3261 55.8321 28.1902 55.7946 28.0404V28.0404C55.779 27.9777 55.7689 27.913 55.777 27.8489C55.7859 27.7788 55.8047 27.7136 55.8334 27.6534C56.1157 27.0623 56.9898 27.3762 57.5241 27.755L58.822 28.675C59.65 29.125 60.271 29.35 60.685 29.35H61.414C63.214 29.35 64.114 26.569 64.114 21.007V20.8402C64.114 20.7534 64.0436 20.683 63.9568 20.683V20.683C63.9033 20.683 63.8536 20.7104 63.8239 20.7549C63.1471 21.769 62.2898 22.276 61.252 22.276C59.938 22.276 59.011 21.43 58.471 19.738C58.291 19.072 58.201 18.397 58.201 17.713V17.47C58.489 12.754 59.11 10.396 60.064 10.396Z"
              fill="white"
            />
            <path
              d="M72.487 10.963L80.587 10.45V10.45C81.2459 10.45 81.3 11.6064 80.7006 11.88C80.3049 12.0607 79.7 12.151 78.886 12.151L74.1876 12.4195C74.17 12.4205 74.1529 12.4251 74.1372 12.4329V12.4329C74.087 12.458 74.0585 12.5109 74.0668 12.5664C74.5076 15.5239 74.728 21.0645 74.728 29.188C74.638 29.98 74.35 30.376 73.864 30.376C73.396 30.376 73.126 30.016 73.054 29.296V23.032C73.054 20.2389 72.9694 17.7558 72.8003 15.5827C72.6696 13.9025 71.1535 12.6683 69.4933 12.9585C68.51 13.1303 67.9209 13.3154 67.7262 13.5136C67.6536 13.5875 67.593 13.6901 67.4985 13.7321V13.7321C67.442 13.7572 67.3781 13.7621 67.3195 13.7425C66.8225 13.5762 66.574 13.2977 66.574 12.907C66.574 11.917 68.545 11.269 72.487 10.963Z"
              fill="white"
            />
            <path
              d="M80.8517 12.961C81.4817 12.961 81.7967 14.059 81.7967 16.255L81.957 20.4218C81.9579 20.447 81.9787 20.467 82.0039 20.467V20.467C82.0097 20.467 82.0155 20.4659 82.0209 20.4638L83.0363 20.0704C85.0643 19.2845 86.4399 17.4319 86.8294 15.2922C87.0202 14.2439 87.203 13.6062 87.3777 13.3792C87.4497 13.2855 87.5794 13.276 87.6962 13.258V13.258C87.813 13.24 87.9338 13.2225 88.0464 13.2583C88.0559 13.2613 88.0653 13.2646 88.0747 13.2681C88.6558 13.485 88.639 14.2913 88.5245 14.9009C88.0173 17.6026 87.7637 19.971 87.7637 22.006V23.167C87.7637 24.4145 87.9884 25.6161 88.4379 26.7716C88.7227 27.5039 88.8734 28.648 88.0877 28.648V28.648C87.2237 28.648 86.5847 26.902 86.1707 23.41V20.7943C86.1707 20.7179 86.1088 20.656 86.0324 20.656V20.656C86.0167 20.656 86.0008 20.6588 85.986 20.664C83.3012 21.6134 81.9587 22.2228 81.9587 22.492C81.9587 26.776 81.5627 28.918 80.7707 28.918H80.6627C80.3705 28.918 80.159 28.7298 80.0281 28.3534C79.9428 28.1079 79.9521 27.8418 79.9862 27.5842C80.1365 26.4491 80.2387 25.471 80.2929 24.6498C80.3301 24.0863 79.7393 23.7233 79.2388 23.9849L79.2198 23.9949C79.174 24.0189 79.1251 24.0367 79.0746 24.0479V24.0479C78.9656 24.0721 78.8505 24.0678 78.7501 24.019C78.4052 23.8517 78.2327 23.5947 78.2327 23.248C78.2327 22.8564 78.9192 22.2448 80.2921 21.4132C80.3207 21.3958 80.3387 21.3645 80.3387 21.331V21.331C80.2847 18.235 80.1677 15.67 79.9877 13.636C79.9877 13.24 80.2757 13.015 80.8517 12.961Z"
              fill="white"
            />
            <path
              d="M91.3513 13.042V13.042C92.1248 13.042 92.1482 14.112 92.0699 14.8815L92.0263 15.31V15.823C92.4763 19.549 92.7553 22.447 92.8633 24.517C92.9391 25.2543 93.0162 25.8504 93.0947 26.3054C93.2075 26.9603 93.3304 27.9628 92.6817 28.1071V28.1071C92.6152 28.1219 92.5045 28.1378 92.4373 28.1269C91.6053 27.9921 91.1893 26.1768 91.1893 22.681L90.4333 15.661V15.418C90.4333 13.834 90.7393 13.042 91.3513 13.042Z"
              fill="white"
            />
            <path
              d="M103.036 12.016H103.306C103.81 12.016 104.098 12.313 104.17 12.907V12.907C104.17 14.5393 101.195 13.8922 99.8338 14.7933C98.8471 15.4466 98.1003 16.2271 97.5934 17.1347C97.471 17.3539 97.3901 17.593 97.3312 17.8371L97.2688 18.0955C97.2436 18.2001 97.2308 18.3074 97.2308 18.415V18.415C97.2308 19.207 97.7618 19.603 98.8238 19.603L101.794 19.441C103.63 19.441 104.919 20.2618 105.66 21.9033C105.794 22.1999 105.871 22.5183 105.926 22.8391V22.8391C105.979 23.1471 106.016 23.4606 105.974 23.7703C105.808 24.973 105 26.107 103.549 27.172C102.245 28.1292 100.698 28.734 99.0938 28.945V28.945C97.2578 28.945 95.9618 27.91 95.2058 25.84C94.9898 25.138 94.8818 24.427 94.8818 23.707C94.8818 23.5535 94.9682 23.3954 95.1409 23.2329C95.2946 23.0882 95.5077 23.032 95.7188 23.032V23.032V23.032C97.3763 23.032 96.4924 26.4442 98.0079 27.1155C98.2419 27.2192 98.4959 27.271 98.7698 27.271H99.4988C100.957 27.271 102.397 26.425 103.819 24.733C104.197 24.193 104.386 23.608 104.386 22.978C104.386 22.1185 103.728 21.5068 102.411 21.143C102.342 21.1239 102.271 21.115 102.199 21.115V21.115L100.021 21.1649C99.1159 21.1856 98.188 21.2099 97.338 20.8994C96.3241 20.5292 95.7864 19.8793 95.7248 18.9499C95.7167 18.8284 95.7006 18.7068 95.6648 18.5905V18.5905C95.629 18.4742 95.6093 18.353 95.6153 18.2314C95.7039 16.4421 97.0884 14.7033 99.7688 13.015C100.975 12.349 102.064 12.016 103.036 12.016Z"
              fill="white"
            />
            <path
              d="M109.457 12.826C109.479 12.826 109.499 12.8166 109.513 12.8005C110.245 11.9715 111.029 11.557 111.867 11.557C112.713 11.557 113.217 12.205 113.379 13.501V13.582C113.379 14.1064 113.137 15.1316 112.654 16.6578C112.491 17.1727 112.941 17.6786 113.469 17.5662V17.5662C113.517 17.5561 113.566 17.5507 113.615 17.5518C115.118 17.5829 115.993 18.5726 116.241 20.521V20.926C116.241 22.7819 115.329 24.5115 113.506 26.1148C112.413 27.0766 111.109 28 109.653 28V28C108.307 28 107.345 27.2791 106.766 25.8372C106.668 25.5943 106.598 25.4288 106.744 25.2121V25.2121C106.991 24.8475 107.31 24.3733 107.321 23.933C107.466 18.1039 107.596 14.4885 107.712 13.0867C107.748 12.651 107.962 12.1897 108.367 12.0233C108.402 12.0087 108.437 11.9967 108.472 11.9873C108.59 11.9554 108.714 11.9807 108.824 12.034C109.169 12.202 109.355 12.4413 109.38 12.7518C109.383 12.7927 109.416 12.826 109.457 12.826V12.826ZM109.221 20.1837C109.221 20.221 109.251 20.251 109.288 20.251V20.251C109.313 20.251 109.336 20.2369 109.348 20.2148C110.812 17.4423 111.588 15.2944 111.678 13.771V13.42C111.678 13.2709 111.557 13.15 111.408 13.15V13.15C111.03 13.15 110.526 14.167 109.896 16.201C109.459 18.0724 109.234 19.3999 109.221 20.1837ZM110.388 21.7226C110.295 21.8538 110.167 21.9568 110.018 22.0164L109.954 22.0423C109.88 22.0717 109.801 22.0837 109.722 22.0774L109.214 22.0368C109.189 22.0347 109.167 22.0549 109.167 22.0804V22.0804C109.167 22.0848 109.166 22.0891 109.165 22.0933L109.113 22.2625C109.077 22.3788 109.059 22.4999 109.059 22.6216V25.246L109.021 25.7166C108.996 26.023 109.193 26.3036 109.489 26.3845V26.3845C109.544 26.3994 109.601 26.4074 109.657 26.4058C110.639 26.3782 111.613 25.8763 112.579 24.9001C113.74 23.7274 114.655 22.2082 114.726 20.5596C114.728 20.5098 114.729 20.4609 114.729 20.413C114.729 19.585 114.333 19.171 113.541 19.171H113.433C112.601 19.171 111.586 20.0215 110.388 21.7226Z"
              fill="white"
            />
            <path
              d="M120.425 13.5116C120.638 13.4256 120.862 13.3748 121.088 13.3387L121.157 13.3277C121.334 13.2993 121.514 13.285 121.694 13.285V13.285V13.285C122.589 13.285 123.432 13.9799 124.13 14.5423C124.631 14.947 125.204 15.5627 125.848 16.3893C126.125 16.7454 126.366 17.1288 126.566 17.5333C127.602 19.6289 128.12 21.5068 128.12 23.167C128.12 25.2548 127.484 26.7577 126.212 27.6756C125.718 28.0324 125.118 28.1972 124.521 28.3204V28.3204C123.988 28.4305 123.44 28.5094 122.902 28.4206C120.623 28.0439 118.951 26.0407 117.887 22.411C117.617 21.349 117.482 20.314 117.482 19.306V19.036C117.482 16.1484 118.463 14.3069 120.425 13.5116ZM120.73 15.8615C120.587 15.9373 120.418 15.9492 120.268 15.8879V15.8879C120.056 15.801 119.808 15.8592 119.685 16.0532C119.278 16.6959 119.075 17.5552 119.075 18.631V19.36C119.075 22.4839 120.065 24.8078 122.045 26.3318C122.306 26.5327 122.615 26.6585 122.937 26.7275V26.7275C123.116 26.7657 123.298 26.785 123.48 26.785H124.232C124.824 26.785 125.311 26.5509 125.695 26.0827C126.2 25.4657 126.311 24.6319 126.419 23.842V23.842V23.005C126.419 20.528 125.517 18.2858 123.714 16.2785C123.39 15.9177 122.962 15.6706 122.496 15.5344L122.15 15.4332C122.116 15.4231 122.08 15.418 122.045 15.418V15.418C121.726 15.418 121.288 15.5658 120.73 15.8615Z"
              fill="white"
            />
            <path
              d="M132.317 13.5116C132.529 13.4256 132.754 13.3748 132.98 13.3387L133.049 13.3277C133.226 13.2993 133.406 13.285 133.585 13.285V13.285V13.285C134.481 13.285 135.324 13.9799 136.021 14.5423C136.523 14.947 137.096 15.5627 137.739 16.3893C138.016 16.7454 138.258 17.1288 138.458 17.5333C139.493 19.6289 140.011 21.5068 140.011 23.167C140.011 25.2548 139.375 26.7577 138.104 27.6756C137.61 28.0324 137.01 28.1972 136.413 28.3204V28.3204C135.879 28.4305 135.332 28.5094 134.794 28.4206C132.515 28.0439 130.843 26.0407 129.778 22.411C129.508 21.349 129.373 20.314 129.373 19.306V19.036C129.373 16.1484 130.355 14.3069 132.317 13.5116ZM132.622 15.8615C132.479 15.9373 132.31 15.9492 132.16 15.8879V15.8879C131.947 15.801 131.699 15.8592 131.576 16.0532C131.17 16.6959 130.966 17.5552 130.966 18.631V19.36C130.966 22.4839 131.956 24.8078 133.936 26.3318C134.197 26.5327 134.507 26.6585 134.829 26.7275V26.7275C135.007 26.7657 135.189 26.785 135.372 26.785H136.123C136.715 26.785 137.203 26.5509 137.586 26.0827C138.091 25.4657 138.203 24.6319 138.31 23.842V23.842V23.005C138.31 20.528 137.409 18.2858 135.606 16.2785C135.282 15.9177 134.853 15.6706 134.388 15.5344L134.042 15.4332C134.008 15.4231 133.972 15.418 133.936 15.418V15.418C133.618 15.418 133.18 15.5658 132.622 15.8615Z"
              fill="white"
            />
            <path
              d="M144.073 10.531V10.531C144.768 10.531 144.682 11.5639 144.489 12.2318C143.942 14.1236 143.668 16.4547 143.668 19.225V22.1298C143.668 22.1509 143.685 22.168 143.706 22.168V22.168C143.716 22.168 143.725 22.1644 143.733 22.1572C144.638 21.2419 145.983 18.6405 147.767 14.353C148.188 13.3433 148.541 11.8 149.635 11.8V11.8H149.743C150.006 11.8 150.222 11.9261 150.392 12.1784C150.449 12.2637 150.472 12.3667 150.472 12.4695V12.4695C150.472 12.6909 150.358 12.9019 150.224 13.0776C149.663 13.8108 148.638 15.9686 147.151 19.5511C146.898 20.1592 146.589 20.743 146.224 21.2908L144.572 23.7688C144.563 23.7813 144.559 23.796 144.559 23.8111V23.8111C144.559 23.8309 144.567 23.8501 144.58 23.8643C146.608 25.9554 148.716 27.001 150.904 27.001H151.93C151.987 27.001 152.043 27.0005 152.097 26.9996C152.861 26.9864 154.009 26.9118 154.009 27.676V27.676V27.892C154.009 28.342 153.226 28.567 151.66 28.567H151.255C148.693 28.567 146.247 27.5152 143.917 25.4114C143.896 25.392 143.868 25.381 143.839 25.381V25.381C143.774 25.381 143.722 25.4333 143.722 25.4979V28.513C143.722 29.125 143.443 29.431 142.885 29.431C142.381 29.431 142.129 29.125 142.129 28.513V27.2748C142.129 26.0309 141.13 24.9239 141.13 23.68V23.68V23.68C141.13 22.9399 142.048 22.351 142.048 21.6109V19.117C142.048 16.0005 142.406 13.4574 143.123 11.4879C143.289 11.0315 143.587 10.531 144.073 10.531V10.531Z"
              fill="white"
            />
          </svg>